<?xml version="1.0" encoding="utf-8"?>
<!-- Generator: Adobe Illustrator 16.0.4, SVG Export Plug-In . SVG Version: 6.00 Build 0)  -->
<!DOCTYPE svg PUBLIC "-//W3C//DTD SVG 1.1//EN" "http://www.w3.org/Graphics/SVG/1.1/DTD/svg11.dtd">
<svg version="1.1" id="Layer_1" xmlns="http://www.w3.org/2000/svg" xmlns:xlink="http://www.w3.org/1999/xlink" x="0px" y="0px"
	 width="556.193px" height="162.033px" viewBox="0 0 556.193 162.033" enable-background="new 0 0 556.193 162.033"
	 xml:space="preserve">
<g>
	<line fill="none" stroke="#3CA67D" stroke-miterlimit="10" x1="20.367" y1="135.948" x2="35.276" y2="142.414"/>
	<line fill="none" stroke="#3CA67D" stroke-miterlimit="10" x1="23.451" y1="130.549" x2="35.064" y2="141.915"/>
</g>
<line fill="none" stroke="#3CA67D" stroke-miterlimit="10" x1="29.261" y1="127.236" x2="35.068" y2="142.414"/>
<path fill="none" stroke="#3CA67D" stroke-miterlimit="10" d="M1.444,162.033c0,0-3.25-3.033,0-7.283
	c2.25-3.875,7.25-6.25,12.75-6.25s10.5,2.908,12.5,6.767s0,6.767,0,6.767h9.5v-1.658c0,0-0.271-0.514-0.438-1.5
	c-0.215-1.271,0.938-1.938,0.938-1.938l2.75-0.188c0,0,0.358-1.68,1.679-1.68s11.821,0.196,11.821,0.196v-2.642l4.625-5v-6.312
	h0.375v6.354l4.708,4.959v2.604h1.979v-35.665h1.397V100.73h7.104V72.689h1.021v-0.792h2.249V50.731h1.375v-4.562l1.541,0.333
	v-2.562c0,0,0.729-1.479,7.125-3.25s8.812-1.667,9.458-1.542s0.75,0.417,0.75,0.417v9.146l0.812,0.062v113.056h1.647v-52.415h1.375
	v-5.938h0.833v-2.146h0.646V99.87h-0.542v-0.667h0.542V94.14h1.458l3.562-4.792l3.542,4.771h1.521v5.021h0.437v0.812h-0.5v1.375
	h0.729v2.188h0.75v5.896h1.417v52.438h1.062v-48.566h3.792v-1.438h8.145v-6.376h7.292v6.354h8.083v1.438h3.792v11.96h2.625v-2.104
	h2.646v-1.917h1.229v-1h1.5v-1.229h0.98v1.188h0.292v-9.252h0.708v9.229h1.917v1.021h0.792v1.916h0.688v2.167h3.084v3.043h1.749
	V96.117h2.958v-2.333h4.417v2.312h2.958v65.792h1.042v-34.792h0.875v-2.479h4.563v2.438h0.917v-7.209h-0.771v-1.5h0.771v-2.583
	h1.021v-1.605h0.75v-1h0.479v-1.292h0.896v-2.292h0.292v-1.062h1.167v-0.729h0.604v-1.729h0.708v1.729h0.604v0.666h1.146v1.062
	h0.333v2.292h0.896v1.271h0.458v1h0.813v1.626h1v2.646h0.688v1.5h-0.687v7.228h0.854v-30.5h3.959V70.404h3.229V52.363h1.209V40.196
	h0.833v12.125h0.5v-7.146h0.729v6.208h0.438V32.967h0.312v-6.562h1.062v6.583h0.417v17.48h1.062V38.906h0.5V27.072h1.395v24.292
	h0.814v-11.73h0.667V52.28h2.75v18.063h3.125v26.249h3.979v65.25h1.166v-34.436h1.125v-6.416h0.812v-4.087l4.729-2.832v-0.667h0.667
	l-0.146-1.458l-0.146-0.959l0.417-0.021c0,0-0.458-0.542,0-0.604s0.208,0.584,0.208,0.584l0.312,0.041l-0.229,1l0.042,1.417
	l0.521,0.021v0.625l4.854,2.917v4h0.771v6.438h1.083v34.439h1.583v-24.5h-1.271v-1.583h1.271v-0.898h6.48v-1.127h1.417v-1.854h2.583
	v-1.898h3.063v1.875h2.625v1.854h1.458v1.104h1.312v-34.27h9.479v-2.667h1.625v-3.417h0.979v1.292h2.187V85.485h0.417v8.979h0.958
	v-6.771h0.479v6.708h0.291v1.333h1.688v-1.271h0.979v3.458h2.751v2.646h13.021v61.229h1.728V94.966h2.061v-2.208h6.332v2.271h2.146
	v51.81h2.958v-1.75h-0.272v-1.104h0.521v0.418h0.23v0.333h0.417l9.708-4.583v-0.375h0.292v-0.334h0.312v-0.291h0.375v0.291h0.354
	v0.292h0.334v0.375l4.979,2.354v-38.543h1.708v-0.792h4.104v-1.062h2.396v1.021h1.688v0.812h4.979v57.916h0.395v-2.125h-0.27v-0.729
	h0.916v-0.208h-0.438v-0.688h0.25v-3.646h0.293v-1h-0.5v-0.521h0.375v-0.792h0.417l1.125-1.146c0,0-0.417-0.792,0.25-0.792
	s0.271,0.834,0.271,0.834l1.041,1.083h0.438v0.708h0.521v0.52h-0.562v1.021h0.292v1.917v1.688h5.689v3.957h21.685v-3.667h5.334
	v-1.875h7.646V155.5h3.604v-3.438h0.271v-0.979h-0.438v-0.541h0.438v-0.771h0.354l1.084-1c0,0-0.458-0.833,0.312-0.833
	s0.188,0.854,0.188,0.854l1.083,0.979h0.458v0.834h0.417v0.438h-0.438v1h0.271v3.458h1v6.291h0.334V98.853h4.501V73.207h1v-1.271
	h2.104v1.25h0.792v-4.104h3V66.52h1v2.604h3.042v4.125h0.812v-1.292h2.021v1.333h1.041v25.604h4.562v62.979h0.896v-31.062
	l5.291-8.896v4.875h0.646v-5.188l6.938,9.312v30.916h0.707v-57.997h0.521l2.728-7.292l0.666,1.729l3.334-5.521v-6.833h0.96v6.875
	l3.375,5.459l0.625-1.667l2.75,7.292h0.479v57.938h0.564v-27.311h1.854v-29.771h0.687v-0.854h1.938v-1.459h2.875v2.292h0.604v27.438
	h2.064v-0.771h1.875v0.875h3.646v2.271h1v-1.625h0.854v-1.021h0.792v1h0.812v-0.334h0.5v0.375h0.438v1.562h1.207v13.646h2.915
	V93.981h0.897v-0.854h5.896v-5.292h1.542v-1.917h1.021v1.896h0.417V85.96h1.417v1.854h0.5v-1.875h0.938v1.958h1.583v66.251h1.729
	v-25.062h1.353v-1.938h4.562v1.979h4.145v-1.604h1.792v-0.459h1.542v0.542h3.419v1.562h1.083v-0.729h4.979v0.646h1.042v24.229h1.938
	v-41.375h2.148v-5.959h1.709v-3.229h4.208v3.25h1.688v5.938h2.146v41.377h1.273v-46.415h5.126v-1.021h3.083v1.021h0.708v3.375h3.25
	v47.708h2.707v-33.54h1.021v-0.916h1.833v0.875h0.792v-0.875h1.583v0.896h0.855v-0.896h1.646v0.958h1.042v33.479h4.167v3.917"/>
<circle fill="none" stroke="#3CA67D" stroke-miterlimit="10" cx="35.276" cy="142.375" r="16.25"/>
<circle fill="none" stroke="#3CA67D" stroke-miterlimit="10" cx="35.276" cy="142.414" r="13.523"/>
<circle fill="none" stroke="#3CA67D" stroke-miterlimit="10" cx="35.276" cy="142.375" r="6.835"/>
<line fill="none" stroke="#3CA67D" stroke-miterlimit="10" x1="35.276" y1="142.375" x2="19.026" y2="142.375"/>
<line fill="none" stroke="#3CA67D" stroke-miterlimit="10" x1="51.318" y1="142.414" x2="35.068" y2="142.414"/>
<g>
	<g>
		<line fill="none" stroke="#3CA67D" stroke-miterlimit="10" x1="49.648" y1="148.88" x2="34.739" y2="142.414"/>
		<line fill="none" stroke="#3CA67D" stroke-miterlimit="10" x1="46.564" y1="154.279" x2="34.951" y2="142.913"/>
	</g>
	<line fill="none" stroke="#3CA67D" stroke-miterlimit="10" x1="40.754" y1="157.592" x2="34.947" y2="142.414"/>
</g>
<g>
	<g>
		<line fill="none" stroke="#3CA67D" stroke-miterlimit="10" x1="20.367" y1="148.88" x2="35.276" y2="142.414"/>
		<line fill="none" stroke="#3CA67D" stroke-miterlimit="10" x1="23.451" y1="154.279" x2="35.064" y2="142.913"/>
	</g>
	<line fill="none" stroke="#3CA67D" stroke-miterlimit="10" x1="29.261" y1="157.592" x2="35.068" y2="142.414"/>
</g>
<g>
	<g>
		<line fill="none" stroke="#3CA67D" stroke-miterlimit="10" x1="49.978" y1="135.948" x2="35.068" y2="142.414"/>
		<line fill="none" stroke="#3CA67D" stroke-miterlimit="10" x1="46.894" y1="130.549" x2="35.28" y2="141.915"/>
	</g>
	<line fill="none" stroke="#3CA67D" stroke-miterlimit="10" x1="41.084" y1="127.236" x2="35.276" y2="142.414"/>
</g>
<g>
	<g>
		<line fill="none" stroke="#3CA67D" stroke-miterlimit="10" x1="20.367" y1="135.948" x2="35.276" y2="142.414"/>
		<line fill="none" stroke="#3CA67D" stroke-miterlimit="10" x1="23.451" y1="130.549" x2="35.064" y2="141.915"/>
	</g>
	<line fill="none" stroke="#3CA67D" stroke-miterlimit="10" x1="29.261" y1="127.236" x2="35.068" y2="142.414"/>
</g>
<line fill="none" stroke="#3CA67D" stroke-miterlimit="10" x1="35.276" y1="125.664" x2="35.276" y2="141.914"/>
<line fill="none" stroke="#3CA67D" stroke-miterlimit="10" x1="35.068" y1="142.414" x2="35.068" y2="158.664"/>
</svg>
