<?xml version="1.0" encoding="utf-8"?>
<!-- Generator: Adobe Illustrator 16.0.4, SVG Export Plug-In . SVG Version: 6.00 Build 0)  -->
<!DOCTYPE svg PUBLIC "-//W3C//DTD SVG 1.1//EN" "http://www.w3.org/Graphics/SVG/1.1/DTD/svg11.dtd">
<svg version="1.1" id="Layer_1" xmlns="http://www.w3.org/2000/svg" xmlns:xlink="http://www.w3.org/1999/xlink" x="0px" y="0px"
	 width="1044px" height="1044px" viewBox="0 0 1044 1044" enable-background="new 0 0 1044 1044" xml:space="preserve">
<path fill="none" stroke="#40AD7F" stroke-width="60" stroke-miterlimit="10" d="M1019.235,670.551
	c-11.893,187.106-161.55,336.775-348.651,348.682"/>
<path fill="none" stroke="#40AD7F" stroke-width="60" stroke-miterlimit="10" d="M670.585,24.766
	c187.101,11.908,336.759,161.577,348.65,348.683"/>
<path fill="none" stroke="#40AD7F" stroke-width="60" stroke-miterlimit="10" d="M24.765,373.449
	C36.66,186.281,186.411,36.576,373.598,24.754"/>
<path fill="none" stroke="#40AD7F" stroke-width="60" stroke-miterlimit="10" d="M373.601,1019.244
	c-187.188-11.819-336.94-161.525-348.836-348.693"/>
<path fill="none" stroke="#40AD7F" stroke-width="40" stroke-miterlimit="10" d="M397.499,1019.997"/>
<g>
	
		<line fill="#40AD7F" stroke="#40AD7F" stroke-width="40" stroke-miterlimit="10" x1="210.131" y1="242.812" x2="359.682" y2="242.812"/>
	
		<line fill="#40AD7F" stroke="#40AD7F" stroke-width="40" stroke-miterlimit="10" x1="284.906" y1="168.036" x2="284.906" y2="317.587"/>
</g>
<g>
	<path fill="none" stroke="#40AD7F" stroke-width="40" stroke-miterlimit="10" d="M359.031,607.84
		c0,0,36.128,134.099,165.595,134.099S681.188,607.84,681.188,607.84"/>
	<path fill="none" stroke="#40AD7F" stroke-width="40" stroke-miterlimit="10" d="M279.585,450.543c0,0-1.748-65.156,62.182-65.156
		c63.388,0,63.388,65.156,63.388,65.156"/>
	<path fill="none" stroke="#40AD7F" stroke-width="40" stroke-miterlimit="10" d="M639.852,450.543c0,0-1.747-65.156,62.182-65.156
		c63.387,0,63.387,65.156,63.387,65.156"/>
</g>
</svg>
